<svg xmlns="http://www.w3.org/2000/svg" width="1200" height="400" viewBox="0 0 1200 400"><rect width="100%" height="100%" fill="#dc3545"/><path fill="#FFFFFF" d="M305.95 193.51q0 6.99-2.31 12.96-2.31 5.96-6.53 10.31-4.23 4.36-10.17 6.8-5.94 2.44-13.2 2.44-7.21 0-13.15-2.44t-10.19-6.8q-4.25-4.35-6.58-10.31-2.33-5.97-2.33-12.96 0-7 2.33-12.96 2.33-5.96 6.58-10.32 4.25-4.35 10.19-6.8 5.94-2.44 13.15-2.44 4.84 0 9.11 1.12 4.27 1.13 7.83 3.17 3.57 2.05 6.4 4.97 2.84 2.93 4.82 6.54 1.98 3.61 3.02 7.83 1.03 4.22 1.03 8.89Zm-12.1 0q0-5.24-1.41-9.4-1.41-4.15-4-7.06-2.6-2.9-6.32-4.44-3.71-1.54-8.38-1.54-4.66 0-8.38 1.54-3.72 1.54-6.34 4.44-2.61 2.91-4.02 7.06-1.41 4.16-1.41 9.4 0 5.23 1.41 9.39t4.02 7.04q2.62 2.88 6.34 4.42 3.72 1.54 8.38 1.54 4.67 0 8.38-1.54 3.72-1.54 6.32-4.42 2.59-2.88 4-7.04 1.41-4.16 1.41-9.39Zm34.85 31.81h-10.87v-36.96l-3.92-.62q-1.27-.26-2.04-.9t-.77-1.82v-4.45h6.73v-3.34q0-3.87 1.17-6.95 1.16-3.08 3.34-5.24 2.18-2.16 5.3-3.3 3.13-1.14 7.04-1.14 3.13 0 5.81.83l-.22 5.46q-.04.61-.35.99-.31.37-.82.57-.5.2-1.16.26-.66.07-1.41.07-1.94 0-3.45.42-1.52.42-2.58 1.45-1.05 1.03-1.6 2.73-.55 1.69-.55 4.2v2.99h11.74v7.75H328.7v37Zm26.09-27.76h20.5q0-2.12-.59-3.99t-1.78-3.27q-1.19-1.41-3.02-2.23-1.82-.81-4.24-.81-4.71 0-7.42 2.68-2.7 2.69-3.45 7.62Zm27.72 6.55h-27.94q.26 3.48 1.23 6.01t2.55 4.18q1.59 1.65 3.77 2.46 2.17.82 4.81.82 2.64 0 4.56-.62 1.91-.62 3.34-1.36 1.43-.75 2.51-1.37 1.08-.61 2.09-.61 1.36 0 2.02 1.01l3.13 3.96q-1.81 2.11-4.05 3.54-2.24 1.43-4.69 2.29-2.44.86-4.97 1.21t-4.9.35q-4.71 0-8.76-1.56t-7.04-4.62q-2.99-3.06-4.71-7.57-1.71-4.51-1.71-10.45 0-4.62 1.49-8.69 1.5-4.07 4.29-7.08 2.8-3.02 6.82-4.78 4.03-1.76 9.09-1.76 4.27 0 7.87 1.37 3.61 1.36 6.21 3.98 2.59 2.62 4.07 6.42 1.47 3.81 1.47 8.69 0 2.47-.53 3.32-.52.86-2.02.86Zm20.28-21.21.66 5.11q2.12-4.05 5.02-6.36 2.9-2.31 6.86-2.31 3.13 0 5.02 1.36l-.7 8.14q-.22.8-.64 1.13-.42.33-1.12.33-.66 0-1.96-.22-1.3-.22-2.53-.22-1.81 0-3.21.52-1.41.53-2.53 1.52-1.13.99-1.98 2.4-.86 1.41-1.61 3.21v27.81H393.2v-45.14h6.38q1.67 0 2.33.59.66.59.88 2.13Zm38.28 43.12q-5.89 0-9.04-3.32-3.14-3.32-3.14-9.17v-25.21h-4.62q-.88 0-1.5-.58-.62-.57-.62-1.71v-4.31l7.26-1.19 2.29-12.32q.22-.88.84-1.37.61-.48 1.58-.48h5.63v14.21h12.06v7.75h-12.06v24.46q0 2.11 1.04 3.3 1.03 1.19 2.84 1.19 1.01 0 1.69-.24.68-.25 1.19-.51.5-.26.9-.51.4-.24.79-.24.49 0 .79.24.31.25.66.73l3.26 5.28q-2.38 1.98-5.46 2.99-3.08 1.01-6.38 1.01Zm41.54-12.36v-7.61q-4.71.22-7.92.81-3.21.6-5.15 1.52-1.93.92-2.77 2.16-.84 1.23-.84 2.68 0 2.86 1.7 4.09 1.69 1.23 4.42 1.23 3.34 0 5.79-1.21 2.44-1.21 4.77-3.67Zm-22.97-23.72-1.93-3.47q7.78-7.13 18.74-7.13 3.96 0 7.08 1.3 3.13 1.3 5.28 3.61 2.16 2.31 3.28 5.52 1.12 3.21 1.12 7.04v28.51h-4.92q-1.54 0-2.38-.46-.84-.46-1.32-1.87l-.97-3.26q-1.71 1.54-3.34 2.71-1.63 1.16-3.39 1.96-1.76.79-3.76 1.21-2 .41-4.42.41-2.86 0-5.28-.77-2.42-.77-4.18-2.31-1.76-1.54-2.73-3.82-.97-2.29-.97-5.33 0-1.71.57-3.41.57-1.69 1.87-3.23 1.3-1.54 3.37-2.91 2.07-1.36 5.08-2.37 3.01-1.01 7.02-1.65 4-.64 9.15-.77v-2.64q0-4.53-1.94-6.71-1.93-2.18-5.58-2.18-2.64 0-4.38.62-1.74.61-3.06 1.38-1.32.77-2.4 1.39-1.08.61-2.4.61-1.14 0-1.93-.59t-1.28-1.39Zm73.79-4.88-2.46 3.92q-.44.7-.93.99-.48.28-1.23.28-.79 0-1.69-.44-.91-.44-2.09-.99-1.19-.55-2.71-.99-1.52-.44-3.59-.44-3.21 0-5.03 1.37-1.83 1.36-1.83 3.56 0 1.45.95 2.44.94.99 2.5 1.74 1.57.75 3.55 1.34 1.98.6 4.02 1.3 2.05.7 4.03 1.61 1.98.9 3.54 2.28 1.56 1.39 2.51 3.33.94 1.93.94 4.66 0 3.26-1.16 6.01-1.17 2.75-3.46 4.75-2.28 2-5.65 3.12-3.37 1.12-7.77 1.12-2.33 0-4.55-.41-2.22-.42-4.27-1.17-2.04-.75-3.78-1.76-1.74-1.01-3.06-2.2l2.51-4.14q.48-.74 1.14-1.14.66-.4 1.67-.4 1.02 0 1.92.58.9.57 2.09 1.23t2.79 1.23q1.61.57 4.07.57 1.94 0 3.32-.46 1.39-.46 2.29-1.21.9-.75 1.32-1.74.42-.99.42-2.04 0-1.59-.95-2.6-.94-1.01-2.5-1.76-1.57-.75-3.57-1.34-2-.6-4.09-1.3-2.09-.7-4.09-1.65t-3.57-2.4q-1.56-1.45-2.5-3.56-.95-2.11-.95-5.11 0-2.77 1.1-5.28 1.1-2.5 3.23-4.37 2.14-1.87 5.33-3 3.19-1.12 7.37-1.12 4.66 0 8.49 1.54t6.38 4.05Zm71.9-13.95h-28.25v17.65h22.26v9.1h-22.26v18h28.25v9.46H565.2V161.7h40.13v9.41Zm38.76 13.95-2.46 3.92q-.44.7-.93.99-.48.28-1.23.28-.79 0-1.69-.44-.91-.44-2.09-.99-1.19-.55-2.71-.99-1.52-.44-3.59-.44-3.21 0-5.03 1.37-1.83 1.36-1.83 3.56 0 1.45.95 2.44.94.99 2.5 1.74 1.57.75 3.55 1.34 1.98.6 4.02 1.3 2.05.7 4.03 1.61 1.98.9 3.54 2.28 1.56 1.39 2.51 3.33.94 1.93.94 4.66 0 3.26-1.16 6.01-1.17 2.75-3.46 4.75-2.28 2-5.65 3.12-3.37 1.12-7.77 1.12-2.33 0-4.55-.41-2.22-.42-4.27-1.17-2.04-.75-3.78-1.76-1.74-1.01-3.06-2.2l2.51-4.14q.48-.74 1.14-1.14.66-.4 1.67-.4 1.02 0 1.92.58.9.57 2.09 1.23t2.79 1.23q1.61.57 4.07.57 1.94 0 3.32-.46 1.39-.46 2.29-1.21.9-.75 1.32-1.74.42-.99.42-2.04 0-1.59-.95-2.6-.94-1.01-2.5-1.76-1.57-.75-3.57-1.34-2-.6-4.09-1.3-2.09-.7-4.09-1.65t-3.57-2.4q-1.56-1.45-2.5-3.56-.95-2.11-.95-5.11 0-2.77 1.1-5.28 1.1-2.5 3.23-4.37 2.14-1.87 5.33-3 3.19-1.12 7.37-1.12 4.66 0 8.49 1.54t6.38 4.05Zm19.54 8.32v20.24q1.84 2.24 4.02 3.16 2.18.93 4.73.93 2.47 0 4.45-.93 1.98-.92 3.36-2.81 1.39-1.89 2.14-4.78.74-2.88.74-6.79 0-3.96-.63-6.71-.64-2.75-1.83-4.47-1.19-1.72-2.88-2.51-1.7-.79-3.85-.79-3.39 0-5.77 1.43-2.37 1.43-4.48 4.03Zm-1.46-11.22.88 4.18q2.78-3.13 6.3-5.06 3.52-1.94 8.27-1.94 3.69 0 6.75 1.54t5.28 4.47q2.22 2.92 3.43 7.21t1.21 9.84q0 5.06-1.36 9.37t-3.89 7.48q-2.53 3.17-6.12 4.95-3.59 1.78-8.03 1.78-3.78 0-6.47-1.17-2.68-1.16-4.79-3.23v18.48h-10.87v-59.88h6.64q2.11 0 2.77 1.98Zm49.15 15.4h20.51q0-2.12-.6-3.99-.59-1.87-1.78-3.27-1.19-1.41-3.01-2.23-1.83-.81-4.25-.81-4.71 0-7.41 2.68-2.71 2.69-3.46 7.62Zm27.72 6.55H711.1q.27 3.48 1.23 6.01.97 2.53 2.56 4.18 1.58 1.65 3.76 2.46 2.18.82 4.82.82t4.55-.62q1.91-.62 3.34-1.36 1.43-.75 2.51-1.37 1.08-.61 2.09-.61 1.37 0 2.03 1.01l3.12 3.96q-1.8 2.11-4.05 3.54-2.24 1.43-4.68 2.29-2.45.86-4.98 1.21-2.53.35-4.9.35-4.71 0-8.76-1.56t-7.04-4.62q-2.99-3.06-4.71-7.57-1.71-4.51-1.71-10.45 0-4.62 1.49-8.69 1.5-4.07 4.29-7.08 2.8-3.02 6.82-4.78 4.03-1.76 9.09-1.76 4.27 0 7.88 1.37 3.6 1.36 6.2 3.98t4.07 6.42q1.47 3.81 1.47 8.69 0 2.47-.52 3.32-.53.86-2.03.86Zm45.89-18.35-2.86 3.96q-.48.62-.94.97-.46.35-1.34.35-.84 0-1.63-.5-.79-.51-1.89-1.15-1.1-.63-2.62-1.14-1.52-.51-3.76-.51-2.86 0-5.02 1.04-2.16 1.03-3.59 2.97-1.43 1.93-2.13 4.68t-.7 6.23q0 3.61.77 6.42.77 2.82 2.22 4.73 1.45 1.92 3.52 2.91 2.07.99 4.66.99 2.6 0 4.2-.64 1.61-.64 2.71-1.41 1.1-.77 1.91-1.41.82-.63 1.83-.63 1.32 0 1.98 1.01l3.12 3.96q-1.8 2.11-3.91 3.54-2.11 1.43-4.38 2.29-2.27.86-4.66 1.21-2.4.35-4.78.35-4.18 0-7.87-1.56-3.7-1.56-6.47-4.56-2.77-2.99-4.38-7.32-1.61-4.34-1.61-9.88 0-4.97 1.43-9.22 1.43-4.24 4.21-7.35 2.77-3.1 6.86-4.86 4.09-1.76 9.42-1.76 5.06 0 8.86 1.63 3.81 1.63 6.84 4.66Zm7.57-5.58h10.91v45.14H792.5v-45.14Zm12.41-13.16q0 1.41-.57 2.64-.57 1.23-1.52 2.16-.95.92-2.22 1.47-1.28.55-2.73.55-1.41 0-2.66-.55-1.26-.55-2.18-1.47-.92-.93-1.47-2.16-.55-1.23-.55-2.64 0-1.45.55-2.73.55-1.27 1.47-2.2.92-.92 2.18-1.47 1.25-.55 2.66-.55 1.45 0 2.73.55 1.27.55 2.22 1.47.95.93 1.52 2.2.57 1.28.57 2.73Zm33.44 46.64v-7.61q-4.71.22-7.92.81-3.21.6-5.15 1.52-1.93.92-2.77 2.16-.84 1.23-.84 2.68 0 2.86 1.7 4.09 1.69 1.23 4.42 1.23 3.34 0 5.79-1.21 2.44-1.21 4.77-3.67Zm-22.97-23.72-1.93-3.47q7.78-7.13 18.74-7.13 3.96 0 7.08 1.3 3.13 1.3 5.28 3.61 2.16 2.31 3.28 5.52 1.12 3.21 1.12 7.04v28.51h-4.92q-1.54 0-2.38-.46-.84-.46-1.32-1.87l-.97-3.26q-1.71 1.54-3.34 2.71-1.63 1.16-3.39 1.96-1.76.79-3.76 1.21-2 .41-4.42.41-2.86 0-5.28-.77-2.42-.77-4.18-2.31-1.76-1.54-2.73-3.82-.97-2.29-.97-5.33 0-1.71.57-3.41.57-1.69 1.87-3.23 1.3-1.54 3.37-2.91 2.07-1.36 5.08-2.37 3.01-1.01 7.02-1.65 4-.64 9.15-.77v-2.64q0-4.53-1.94-6.71-1.93-2.18-5.58-2.18-2.64 0-4.38.62-1.74.61-3.06 1.38-1.32.77-2.4 1.39-1.08.61-2.4.61-1.14 0-1.93-.59t-1.28-1.39Zm43.91-30h10.87v65.38h-10.87v-65.38Zm30.32 37.62h20.5q0-2.12-.59-3.99t-1.78-3.27q-1.19-1.41-3.02-2.23-1.82-.81-4.24-.81-4.71 0-7.42 2.68-2.7 2.69-3.45 7.62Zm27.72 6.55h-27.94q.26 3.48 1.23 6.01t2.55 4.18q1.59 1.65 3.77 2.46 2.17.82 4.81.82 2.64 0 4.56-.62 1.91-.62 3.34-1.36 1.43-.75 2.51-1.37 1.08-.61 2.09-.61 1.36 0 2.02 1.01l3.13 3.96q-1.81 2.11-4.05 3.54-2.24 1.43-4.69 2.29-2.44.86-4.97 1.21t-4.9.35q-4.71 0-8.76-1.56t-7.04-4.62q-2.99-3.06-4.71-7.57-1.71-4.51-1.71-10.45 0-4.62 1.49-8.69 1.5-4.07 4.29-7.08 2.8-3.02 6.82-4.78 4.03-1.76 9.09-1.76 4.27 0 7.87 1.37 3.61 1.36 6.21 3.98 2.59 2.62 4.07 6.42 1.47 3.81 1.47 8.69 0 2.47-.53 3.32-.52.86-2.02.86Zm40.7-19.05-2.46 3.92q-.44.7-.93.99-.48.28-1.23.28-.79 0-1.69-.44-.91-.44-2.09-.99-1.19-.55-2.71-.99-1.52-.44-3.59-.44-3.21 0-5.03 1.37-1.83 1.36-1.83 3.56 0 1.45.95 2.44.94.99 2.5 1.74 1.57.75 3.55 1.34 1.98.6 4.02 1.3 2.05.7 4.03 1.61 1.98.9 3.54 2.28 1.56 1.39 2.51 3.33.94 1.93.94 4.66 0 3.26-1.16 6.01-1.17 2.75-3.46 4.75-2.28 2-5.65 3.12-3.37 1.12-7.77 1.12-2.33 0-4.55-.41-2.22-.42-4.27-1.17-2.04-.75-3.78-1.76-1.74-1.01-3.06-2.2l2.51-4.14q.48-.74 1.14-1.14.66-.4 1.67-.4 1.02 0 1.92.58.9.57 2.09 1.23t2.79 1.23q1.61.57 4.07.57 1.94 0 3.32-.46 1.39-.46 2.29-1.21.9-.75 1.32-1.74.42-.99.42-2.04 0-1.59-.95-2.6-.94-1.01-2.5-1.76-1.57-.75-3.57-1.34-2-.6-4.09-1.3-2.09-.7-4.09-1.65t-3.57-2.4q-1.56-1.45-2.5-3.56-.95-2.11-.95-5.11 0-2.77 1.1-5.28 1.1-2.5 3.23-4.37 2.14-1.87 5.33-3 3.19-1.12 7.37-1.12 4.66 0 8.49 1.54t6.38 4.05Z"/></svg>